<?xml version="1.0" standalone="no"?>
<!DOCTYPE svg PUBLIC "-//W3C//DTD SVG 20010904//EN"
 "http://www.w3.org/TR/2001/REC-SVG-20010904/DTD/svg10.dtd">
<svg version="1.0" xmlns="http://www.w3.org/2000/svg"
 width="400.000000pt" height="800.000000pt" viewBox="0 0 400.000000 800.000000"
 preserveAspectRatio="xMidYMid meet">

<g transform="translate(0.000000,800.000000) scale(0.100000,-0.100000)"
fill="#000000" stroke="none">
<path d="M1833 7036 c-343 -66 -630 -316 -737 -643 -10 -29 -24 -53 -31 -53
-18 0 -27 -28 -15 -50 7 -13 7 -42 -1 -92 -15 -97 -5 -272 21 -378 29 -115
104 -268 178 -367 152 -201 384 -333 645 -368 l47 -6 0 -146 0 -146 -464 -876
c-256 -482 -466 -882 -468 -890 -2 -8 11 -22 28 -33 l31 -18 434 818 434 819
2 -256 c2 -141 -1 -818 -5 -1506 l-8 -1250 -357 -739 c-196 -407 -359 -747
-362 -757 -4 -11 3 -20 24 -29 16 -6 34 -9 39 -6 5 3 163 327 353 721 189 393
346 715 349 715 3 0 126 -311 275 -691 148 -380 273 -692 276 -695 9 -5 69 16
69 25 0 4 -129 335 -287 736 l-288 730 -2 570 c-2 314 0 1024 5 1579 l7 1009
757 485 758 485 -20 31 c-11 17 -24 30 -30 28 -6 -1 -337 -211 -736 -467 -399
-256 -728 -465 -730 -465 -2 0 -4 49 -4 108 l0 108 89 12 c211 28 402 122 551
272 120 120 217 291 261 465 34 129 34 350 0 480 -47 184 -172 394 -298 502
-120 103 -259 177 -398 214 -103 26 -292 34 -392 15z m370 -90 c178 -45 345
-151 462 -294 53 -63 155 -247 155 -278 0 -11 -20 -14 -94 -14 -52 0 -101 -3
-110 -6 -14 -5 -16 3 -16 55 l0 61 -275 0 -275 0 0 -65 0 -65 -40 0 -40 0 0
65 0 65 -275 0 -275 0 0 -55 0 -55 -102 0 c-57 0 -113 -3 -125 -6 -18 -5 -23
-2 -23 14 0 36 97 215 155 284 214 260 559 375 878 294z m-313 -646 l0 -90
-195 0 -195 0 0 90 0 90 195 0 195 0 0 -90z m630 0 l0 -90 -195 0 -195 0 0 90
0 90 195 0 195 0 0 -90z m-1100 -90 l0 -80 275 0 275 0 0 75 0 75 40 0 40 0 0
-75 0 -75 275 0 275 0 0 80 0 80 124 0 124 0 11 -63 c14 -80 14 -245 0 -323
-77 -435 -436 -744 -864 -744 -431 0 -795 317 -866 754 -12 75 -8 297 6 343 9
27 22 30 168 32 l117 1 0 -80z"/>
<path d="M1646 6344 c-31 -31 -11 -84 32 -84 38 0 55 14 55 44 0 51 -52 75
-87 40z"/>
<path d="M2342 6358 c-20 -20 -15 -66 9 -78 47 -26 100 25 72 69 -13 20 -64
26 -81 9z"/>
<path d="M1703 5724 c-11 -28 10 -47 103 -94 l89 -45 153 -3 153 -3 40 40 c31
31 40 46 37 68 -5 43 -39 42 -72 -2 l-27 -35 -131 0 -131 0 -88 45 c-95 49
-116 54 -126 29z"/>
<path d="M3255 6061 c-31 -8 -82 -37 -100 -57 -5 -6 -19 -16 -30 -22 -11 -6
-15 -12 -9 -12 6 0 32 17 58 37 34 26 65 40 109 49 34 7 49 12 32 12 -16 0
-44 -3 -60 -7z"/>
<path d="M3312 5889 c-34 -13 -52 -35 -51 -61 1 -19 2 -20 6 -4 9 34 37 55 88
64 43 9 45 10 15 10 -19 1 -45 -3 -58 -9z"/>
<path d="M3541 5571 c-21 -25 -49 -44 -79 -54 -26 -9 -40 -16 -31 -16 40 -2
149 71 149 99 0 16 -4 12 -39 -29z"/>
<path d="M3660 5515 c0 -18 -9 -31 -30 -43 -16 -9 -30 -23 -30 -29 0 -7 -8
-13 -18 -13 -10 0 -22 -4 -28 -10 -5 -5 -27 -14 -49 -19 -37 -8 -38 -9 -9 -10
16 -1 39 6 50 14 10 8 27 15 36 15 10 0 22 9 28 20 6 11 17 20 24 20 12 0 28
24 40 63 3 9 1 17 -4 17 -6 0 -10 -11 -10 -25z"/>
</g>
</svg>
